<svg width="20" height="16" viewBox="0 0 20 16" fill="none" xmlns="http://www.w3.org/2000/svg">
<path fill-rule="evenodd" clip-rule="evenodd" d="M7.93942 15.8586C8.13468 16.0471 8.45126 16.0471 8.64652 15.8586C8.84178 15.6701 8.84178 15.3644 8.64652 15.1759L1.70718 8.4757L19.5172 8.4757C19.7839 8.4757 20 8.25956 20 7.99293C20 7.72631 19.7839 7.51016 19.5172 7.51016L1.72174 7.51016L8.64645 0.824123C8.84171 0.635592 8.84171 0.32992 8.64645 0.141388C8.45118 -0.0471429 8.1346 -0.0471429 7.93934 0.141388L0.239503 7.57584C0.0962403 7.65958 -7.15554e-07 7.81502 -7e-07 7.99293C-6.8621e-07 8.15067 0.0756524 8.29074 0.192655 8.37884L7.93942 15.8586Z" fill="#F1F5F4"/>
</svg>
