<svg width="20" height="16" viewBox="0 0 20 16" fill="none" xmlns="http://www.w3.org/2000/svg">
<path fill-rule="evenodd" clip-rule="evenodd" d="M12.0606 0.141399C11.8653 -0.0471331 11.5487 -0.047133 11.3535 0.141399C11.1582 0.329931 11.1582 0.635603 11.3535 0.824135L18.2928 7.5243L0.482767 7.5243C0.216142 7.5243 0 7.74045 0 8.00707C0 8.2737 0.216142 8.48984 0.482767 8.48984L18.2783 8.48984L11.3536 15.1759C11.1583 15.3644 11.1583 15.6701 11.3536 15.8586C11.5488 16.0471 11.8654 16.0471 12.0607 15.8586L19.7605 8.42417C19.9038 8.34044 20 8.18499 20 8.00707C20 7.84933 19.9243 7.70926 19.8074 7.62117L12.0606 0.141399Z" fill="#F1F5F4"/>
</svg>
